<?xml version="1.0" encoding="UTF-8" standalone="no"?>
<!--
Copyright (c) 2025-2026, Arm Limited and Contributors
-->
<!DOCTYPE svg PUBLIC "-//W3C//DTD SVG 1.1//EN"
 "http://www.w3.org/Graphics/SVG/1.1/DTD/svg11.dtd">
<!-- Generated by graphviz version 2.38.0 (20140413.2041)
 -->
<!-- Title: D Pages: 1 -->
<svg width="851pt" height="188pt"
 viewBox="0.00 0.00 851.25 188.00" xmlns="http://www.w3.org/2000/svg" xmlns:xlink="http://www.w3.org/1999/xlink">
<g id="graph0" class="graph" transform="scale(1 1) rotate(0) translate(4 184)">
<title>D</title>
<polygon fill="white" stroke="none" points="-4,4 -4,-184 847.246,-184 847.246,4 -4,4"/>
<!-- weights -->
<g id="node1" class="node"><title>weights</title>
<ellipse fill="none" stroke="black" cx="262.5" cy="-162" rx="38.1938" ry="18"/>
<text text-anchor="middle" x="262.5" y="-158.3" font-family="Times New Roman,serif" font-size="14.00">weights</text>
</g>
<!-- data_graph_pipeline -->
<g id="node5" class="node"><title>data_graph_pipeline</title>
<polygon fill="none" stroke="black" points="371,-108 242,-108 242,-72 371,-72 371,-108"/>
<text text-anchor="middle" x="306.5" y="-86.3" font-family="Times New Roman,serif" font-size="14.00">data_graph_pipeline</text>
</g>
<!-- weights&#45;&gt;data_graph_pipeline -->
<g id="edge6" class="edge"><title>weights&#45;&gt;data_graph_pipeline</title>
<path fill="none" stroke="black" d="M272.927,-144.411C278.035,-136.285 284.307,-126.307 290.041,-117.184"/>
<polygon fill="black" stroke="black" points="293.175,-118.776 295.533,-108.447 287.248,-115.051 293.175,-118.776"/>
</g>
<!-- biases -->
<g id="node2" class="node"><title>biases</title>
<ellipse fill="none" stroke="black" cx="351.5" cy="-162" rx="33.2948" ry="18"/>
<text text-anchor="middle" x="351.5" y="-158.3" font-family="Times New Roman,serif" font-size="14.00">biases</text>
</g>
<!-- biases&#45;&gt;data_graph_pipeline -->
<g id="edge7" class="edge"><title>biases&#45;&gt;data_graph_pipeline</title>
<path fill="none" stroke="black" d="M341.063,-144.765C335.711,-136.44 329.067,-126.104 323.038,-116.725"/>
<polygon fill="black" stroke="black" points="325.86,-114.643 317.508,-108.124 319.972,-118.428 325.86,-114.643"/>
</g>
<!-- preprocessing -->
<g id="node3" class="node"><title>preprocessing</title>
<polygon fill="none" stroke="black" points="95,-108 0,-108 0,-72 95,-72 95,-108"/>
<text text-anchor="middle" x="47.5" y="-86.3" font-family="Times New Roman,serif" font-size="14.00">preprocessing</text>
</g>
<!-- input_tensor -->
<g id="node4" class="node"><title>input_tensor</title>
<ellipse fill="none" stroke="black" cx="168.5" cy="-90" rx="55.7903" ry="18"/>
<text text-anchor="middle" x="168.5" y="-86.3" font-family="Times New Roman,serif" font-size="14.00">input_tensor</text>
</g>
<!-- preprocessing&#45;&gt;input_tensor -->
<g id="edge1" class="edge"><title>preprocessing&#45;&gt;input_tensor</title>
<path fill="none" stroke="black" d="M95.2383,-90C97.5635,-90 99.8887,-90 102.214,-90"/>
<polygon fill="black" stroke="black" points="102.409,-93.5001 112.409,-90 102.409,-86.5001 102.409,-93.5001"/>
</g>
<!-- input_tensor&#45;&gt;data_graph_pipeline -->
<g id="edge2" class="edge"><title>input_tensor&#45;&gt;data_graph_pipeline</title>
<path fill="none" stroke="black" d="M224.563,-90C226.903,-90 229.243,-90 231.584,-90"/>
<polygon fill="black" stroke="black" points="231.846,-93.5001 241.846,-90 231.846,-86.5001 231.846,-93.5001"/>
</g>
<!-- visualization_pipeline -->
<g id="node10" class="node"><title>visualization_pipeline</title>
<polygon fill="none" stroke="black" points="517.5,-36 383.5,-36 383.5,-0 517.5,-0 517.5,-36"/>
<text text-anchor="middle" x="450.5" y="-14.3" font-family="Times New Roman,serif" font-size="14.00">visualization_pipeline</text>
</g>
<!-- input_tensor&#45;&gt;visualization_pipeline -->
<g id="edge8" class="edge"><title>input_tensor&#45;&gt;visualization_pipeline</title>
<path fill="none" stroke="black" d="M210.123,-77.8074C217.567,-75.8445 225.258,-73.842 232.5,-72 279.153,-60.1341 331.571,-47.3724 373.313,-37.3455"/>
<polygon fill="black" stroke="black" points="374.23,-40.7248 383.138,-34.9885 372.597,-33.9179 374.23,-40.7248"/>
</g>
<!-- output_tensor -->
<g id="node6" class="node"><title>output_tensor</title>
<ellipse fill="none" stroke="black" cx="450.5" cy="-90" rx="61.99" ry="18"/>
<text text-anchor="middle" x="450.5" y="-86.3" font-family="Times New Roman,serif" font-size="14.00">output_tensor</text>
</g>
<!-- data_graph_pipeline&#45;&gt;output_tensor -->
<g id="edge3" class="edge"><title>data_graph_pipeline&#45;&gt;output_tensor</title>
<path fill="none" stroke="black" d="M371.188,-90C373.627,-90 376.067,-90 378.507,-90"/>
<polygon fill="black" stroke="black" points="378.537,-93.5001 388.537,-90 378.537,-86.5001 378.537,-93.5001"/>
</g>
<!-- postprocessing -->
<g id="node7" class="node"><title>postprocessing</title>
<polygon fill="none" stroke="black" points="632.5,-108 530.5,-108 530.5,-72 632.5,-72 632.5,-108"/>
<text text-anchor="middle" x="581.5" y="-86.3" font-family="Times New Roman,serif" font-size="14.00">postprocessing</text>
</g>
<!-- output_tensor&#45;&gt;postprocessing -->
<g id="edge4" class="edge"><title>output_tensor&#45;&gt;postprocessing</title>
<path fill="none" stroke="black" d="M512.418,-90C515.055,-90 517.691,-90 520.328,-90"/>
<polygon fill="black" stroke="black" points="520.498,-93.5001 530.498,-90 520.498,-86.5001 520.498,-93.5001"/>
</g>
<!-- output_tensor&#45;&gt;visualization_pipeline -->
<g id="edge9" class="edge"><title>output_tensor&#45;&gt;visualization_pipeline</title>
<path fill="none" stroke="black" d="M450.5,-71.6966C450.5,-63.9827 450.5,-54.7125 450.5,-46.1124"/>
<polygon fill="black" stroke="black" points="454,-46.1043 450.5,-36.1043 447,-46.1044 454,-46.1043"/>
</g>
<!-- postprocessed_tensor -->
<g id="node8" class="node"><title>postprocessed_tensor</title>
<ellipse fill="none" stroke="black" cx="742.5" cy="-90" rx="91.784" ry="18"/>
<text text-anchor="middle" x="742.5" y="-86.3" font-family="Times New Roman,serif" font-size="14.00">postprocessed_tensor</text>
</g>
<!-- postprocessing&#45;&gt;postprocessed_tensor -->
<g id="edge5" class="edge"><title>postprocessing&#45;&gt;postprocessed_tensor</title>
<path fill="none" stroke="black" d="M632.756,-90C635.382,-90 638.007,-90 640.633,-90"/>
<polygon fill="black" stroke="black" points="640.761,-93.5001 650.761,-90 640.761,-86.5001 640.761,-93.5001"/>
</g>
<!-- postprocessed_tensor&#45;&gt;visualization_pipeline -->
<g id="edge10" class="edge"><title>postprocessed_tensor&#45;&gt;visualization_pipeline</title>
<path fill="none" stroke="black" d="M686.89,-75.6688C641.747,-64.8469 577.597,-49.4685 527.512,-37.4618"/>
<polygon fill="black" stroke="black" points="528.233,-34.0355 517.693,-35.1078 526.601,-40.8427 528.233,-34.0355"/>
</g>
<!-- swapchain -->
<g id="node9" class="node"><title>swapchain</title>
<ellipse fill="none" stroke="black" cx="794.5" cy="-18" rx="48.9926" ry="18"/>
<text text-anchor="middle" x="794.5" y="-14.3" font-family="Times New Roman,serif" font-size="14.00">swapchain</text>
</g>
<!-- output_image -->
<g id="node11" class="node"><title>output_image</title>
<ellipse fill="none" stroke="black" cx="595.5" cy="-18" rx="59.5901" ry="18"/>
<text text-anchor="middle" x="595.5" y="-14.3" font-family="Times New Roman,serif" font-size="14.00">output_image</text>
</g>
<!-- visualization_pipeline&#45;&gt;output_image -->
<g id="edge11" class="edge"><title>visualization_pipeline&#45;&gt;output_image</title>
<path fill="none" stroke="black" d="M517.619,-18C520.237,-18 522.854,-18 525.472,-18"/>
<polygon fill="black" stroke="black" points="525.568,-21.5001 535.568,-18 525.568,-14.5001 525.568,-21.5001"/>
</g>
<!-- blit -->
<g id="node12" class="node"><title>blit</title>
<polygon fill="none" stroke="black" points="727.5,-36 673.5,-36 673.5,-0 727.5,-0 727.5,-36"/>
<text text-anchor="middle" x="700.5" y="-14.3" font-family="Times New Roman,serif" font-size="14.00">blit</text>
</g>
<!-- output_image&#45;&gt;blit -->
<g id="edge12" class="edge"><title>output_image&#45;&gt;blit</title>
<path fill="none" stroke="black" d="M655.383,-18C658.004,-18 660.626,-18 663.247,-18"/>
<polygon fill="black" stroke="black" points="663.359,-21.5001 673.359,-18 663.359,-14.5001 663.359,-21.5001"/>
</g>
<!-- blit&#45;&gt;swapchain -->
<g id="edge13" class="edge"><title>blit&#45;&gt;swapchain</title>
<path fill="none" stroke="black" d="M727.672,-18C730.299,-18 732.925,-18 735.552,-18"/>
<polygon fill="black" stroke="black" points="735.684,-21.5001 745.684,-18 735.684,-14.5001 735.684,-21.5001"/>
</g>
</g>
</svg>
