<?xml version="1.0" encoding="UTF-8" standalone="no"?>
<!DOCTYPE svg PUBLIC "-//W3C//DTD SVG 1.1//EN"
 "http://www.w3.org/Graphics/SVG/1.1/DTD/svg11.dtd">
<!-- Generated by graphviz version 2.38.0 (20140413.2041)
 -->
<!-- Title: D Pages: 1 -->
<svg width="583pt" height="116pt"
 viewBox="0.00 0.00 582.64 116.00" xmlns="http://www.w3.org/2000/svg" xmlns:xlink="http://www.w3.org/1999/xlink">
<g id="graph0" class="graph" transform="scale(1 1) rotate(0) translate(4 112)">
<title>D</title>
<polygon fill="white" stroke="none" points="-4,4 -4,-112 578.641,-112 578.641,4 -4,4"/>
<!-- input_tensor -->
<g id="node1" class="node"><title>input_tensor</title>
<ellipse fill="none" stroke="black" cx="55.895" cy="-90" rx="55.7903" ry="18"/>
<text text-anchor="middle" x="55.895" y="-86.3" font-family="Times New Roman,serif" font-size="14.00">input_tensor</text>
</g>
<!-- graph_pipeline -->
<g id="node3" class="node"><title>graph_pipeline</title>
<polygon fill="none" stroke="black" points="227.895,-108 129.895,-108 129.895,-72 227.895,-72 227.895,-108"/>
<text text-anchor="middle" x="178.895" y="-86.3" font-family="Times New Roman,serif" font-size="14.00">graph_pipeline</text>
</g>
<!-- input_tensor&#45;&gt;graph_pipeline -->
<g id="edge1" class="edge"><title>input_tensor&#45;&gt;graph_pipeline</title>
<path fill="none" stroke="black" d="M112.11,-90C114.605,-90 117.099,-90 119.594,-90"/>
<polygon fill="black" stroke="black" points="119.85,-93.5001 129.85,-90 119.85,-86.5001 119.85,-93.5001"/>
</g>
<!-- visualization_pipeline -->
<g id="node6" class="node"><title>visualization_pipeline</title>
<polygon fill="none" stroke="black" points="248.895,-36 114.895,-36 114.895,-0 248.895,-0 248.895,-36"/>
<text text-anchor="middle" x="181.895" y="-14.3" font-family="Times New Roman,serif" font-size="14.00">visualization_pipeline</text>
</g>
<!-- input_tensor&#45;&gt;visualization_pipeline -->
<g id="edge3" class="edge"><title>input_tensor&#45;&gt;visualization_pipeline</title>
<path fill="none" stroke="black" d="M82.6164,-74.1548C99.9531,-64.5233 122.85,-51.8029 142.285,-41.0054"/>
<polygon fill="black" stroke="black" points="144.181,-43.956 151.223,-36.04 140.782,-37.8369 144.181,-43.956"/>
</g>
<!-- output_tensor -->
<g id="node2" class="node"><title>output_tensor</title>
<ellipse fill="none" stroke="black" cx="307.895" cy="-90" rx="61.99" ry="18"/>
<text text-anchor="middle" x="307.895" y="-86.3" font-family="Times New Roman,serif" font-size="14.00">output_tensor</text>
</g>
<!-- output_tensor&#45;&gt;visualization_pipeline -->
<g id="edge4" class="edge"><title>output_tensor&#45;&gt;visualization_pipeline</title>
<path fill="none" stroke="black" d="M280.555,-73.811C263.31,-64.2304 240.749,-51.6967 221.555,-41.0332"/>
<polygon fill="black" stroke="black" points="223.165,-37.9237 212.723,-36.1267 219.765,-44.0428 223.165,-37.9237"/>
</g>
<!-- graph_pipeline&#45;&gt;output_tensor -->
<g id="edge2" class="edge"><title>graph_pipeline&#45;&gt;output_tensor</title>
<path fill="none" stroke="black" d="M228.026,-90C230.665,-90 233.304,-90 235.943,-90"/>
<polygon fill="black" stroke="black" points="236.121,-93.5001 246.121,-90 236.121,-86.5001 236.121,-93.5001"/>
</g>
<!-- output_image -->
<g id="node4" class="node"><title>output_image</title>
<ellipse fill="none" stroke="black" cx="326.895" cy="-18" rx="59.5901" ry="18"/>
<text text-anchor="middle" x="326.895" y="-14.3" font-family="Times New Roman,serif" font-size="14.00">output_image</text>
</g>
<!-- blit -->
<g id="node7" class="node"><title>blit</title>
<polygon fill="none" stroke="black" points="458.895,-36 404.895,-36 404.895,-0 458.895,-0 458.895,-36"/>
<text text-anchor="middle" x="431.895" y="-14.3" font-family="Times New Roman,serif" font-size="14.00">blit</text>
</g>
<!-- output_image&#45;&gt;blit -->
<g id="edge6" class="edge"><title>output_image&#45;&gt;blit</title>
<path fill="none" stroke="black" d="M386.778,-18C389.399,-18 392.021,-18 394.643,-18"/>
<polygon fill="black" stroke="black" points="394.754,-21.5001 404.754,-18 394.754,-14.5001 394.754,-21.5001"/>
</g>
<!-- swapchain -->
<g id="node5" class="node"><title>swapchain</title>
<ellipse fill="none" stroke="black" cx="525.895" cy="-18" rx="48.9926" ry="18"/>
<text text-anchor="middle" x="525.895" y="-14.3" font-family="Times New Roman,serif" font-size="14.00">swapchain</text>
</g>
<!-- visualization_pipeline&#45;&gt;output_image -->
<g id="edge5" class="edge"><title>visualization_pipeline&#45;&gt;output_image</title>
<path fill="none" stroke="black" d="M249.014,-18C251.632,-18 254.249,-18 256.867,-18"/>
<polygon fill="black" stroke="black" points="256.963,-21.5001 266.963,-18 256.963,-14.5001 256.963,-21.5001"/>
</g>
<!-- blit&#45;&gt;swapchain -->
<g id="edge7" class="edge"><title>blit&#45;&gt;swapchain</title>
<path fill="none" stroke="black" d="M459.067,-18C461.694,-18 464.32,-18 466.947,-18"/>
<polygon fill="black" stroke="black" points="467.079,-21.5001 477.079,-18 467.079,-14.5001 467.079,-21.5001"/>
</g>
</g>
</svg>
