<?xml version="1.0" encoding="UTF-8" standalone="no"?>
<!--
Copyright (c) 2026, Arm Limited and Contributors
-->
<!DOCTYPE svg PUBLIC "-//W3C//DTD SVG 1.1//EN"
 "http://www.w3.org/Graphics/SVG/1.1/DTD/svg11.dtd">
<!-- Generated by graphviz version 2.38.0 (20140413.2041)
 -->
<!-- Title: D Pages: 1 -->
<svg width="716pt" height="116pt"
 viewBox="0.00 0.00 716.25 116.00" xmlns="http://www.w3.org/2000/svg" xmlns:xlink="http://www.w3.org/1999/xlink">
<g id="graph0" class="graph" transform="scale(1 1) rotate(0) translate(4 112)">
<title>D</title>
<polygon fill="white" stroke="none" points="-4,4 -4,-112 712.246,-112 712.246,4 -4,4"/>
<!-- scene_rendering -->
<g id="node1" class="node"><title>scene_rendering</title>
<polygon fill="none" stroke="black" points="107,-108 0,-108 0,-72 107,-72 107,-108"/>
<text text-anchor="middle" x="53.5" y="-86.3" font-family="Times New Roman,serif" font-size="14.00">scene_rendering</text>
</g>
<!-- scene_render_target -->
<g id="node2" class="node"><title>scene_render_target</title>
<ellipse fill="none" stroke="black" cx="208.5" cy="-90" rx="83.6854" ry="18"/>
<text text-anchor="middle" x="208.5" y="-86.3" font-family="Times New Roman,serif" font-size="14.00">scene_render_target</text>
</g>
<!-- scene_rendering&#45;&gt;scene_render_target -->
<g id="edge1" class="edge"><title>scene_rendering&#45;&gt;scene_render_target</title>
<path fill="none" stroke="black" d="M107.084,-90C109.535,-90 111.986,-90 114.438,-90"/>
<polygon fill="black" stroke="black" points="114.515,-93.5001 124.515,-90 114.515,-86.5001 114.515,-93.5001"/>
</g>
<!-- input_tensor -->
<g id="node6" class="node"><title>input_tensor</title>
<ellipse fill="none" stroke="black" cx="208.5" cy="-18" rx="55.7903" ry="18"/>
<text text-anchor="middle" x="208.5" y="-14.3" font-family="Times New Roman,serif" font-size="14.00">input_tensor</text>
</g>
<!-- scene_render_target&#45;&gt;input_tensor -->
<g id="edge2" class="edge"><title>scene_render_target&#45;&gt;input_tensor</title>
<path fill="none" stroke="black" stroke-width="5" stroke-dasharray="5,2" d="M208.5,-71.6966C208.5,-60.8463 208.5,-46.9167 208.5,-36.1043"/>
</g>
<!-- output_image -->
<g id="node3" class="node"><title>output_image</title>
<ellipse fill="none" stroke="black" cx="460.5" cy="-90" rx="59.5901" ry="18"/>
<text text-anchor="middle" x="460.5" y="-86.3" font-family="Times New Roman,serif" font-size="14.00">output_image</text>
</g>
<!-- blit -->
<g id="node4" class="node"><title>blit</title>
<polygon fill="none" stroke="black" points="592.5,-108 538.5,-108 538.5,-72 592.5,-72 592.5,-108"/>
<text text-anchor="middle" x="565.5" y="-86.3" font-family="Times New Roman,serif" font-size="14.00">blit</text>
</g>
<!-- output_image&#45;&gt;blit -->
<g id="edge6" class="edge"><title>output_image&#45;&gt;blit</title>
<path fill="none" stroke="black" d="M520.383,-90C523.004,-90 525.626,-90 528.247,-90"/>
<polygon fill="black" stroke="black" points="528.359,-93.5001 538.359,-90 528.359,-86.5001 528.359,-93.5001"/>
</g>
<!-- swapchain -->
<g id="node5" class="node"><title>swapchain</title>
<ellipse fill="none" stroke="black" cx="659.5" cy="-90" rx="48.9926" ry="18"/>
<text text-anchor="middle" x="659.5" y="-86.3" font-family="Times New Roman,serif" font-size="14.00">swapchain</text>
</g>
<!-- blit&#45;&gt;swapchain -->
<g id="edge7" class="edge"><title>blit&#45;&gt;swapchain</title>
<path fill="none" stroke="black" d="M592.672,-90C595.299,-90 597.925,-90 600.552,-90"/>
<polygon fill="black" stroke="black" points="600.684,-93.5001 610.684,-90 600.684,-86.5001 600.684,-93.5001"/>
</g>
<!-- graph_pipeline -->
<g id="node7" class="node"><title>graph_pipeline</title>
<polygon fill="none" stroke="black" points="380.5,-36 282.5,-36 282.5,-0 380.5,-0 380.5,-36"/>
<text text-anchor="middle" x="331.5" y="-14.3" font-family="Times New Roman,serif" font-size="14.00">graph_pipeline</text>
</g>
<!-- input_tensor&#45;&gt;graph_pipeline -->
<g id="edge3" class="edge"><title>input_tensor&#45;&gt;graph_pipeline</title>
<path fill="none" stroke="black" d="M264.715,-18C267.21,-18 269.704,-18 272.199,-18"/>
<polygon fill="black" stroke="black" points="272.455,-21.5001 282.455,-18 272.455,-14.5001 272.455,-21.5001"/>
</g>
<!-- output_tensor -->
<g id="node8" class="node"><title>output_tensor</title>
<ellipse fill="none" stroke="black" cx="460.5" cy="-18" rx="61.99" ry="18"/>
<text text-anchor="middle" x="460.5" y="-14.3" font-family="Times New Roman,serif" font-size="14.00">output_tensor</text>
</g>
<!-- graph_pipeline&#45;&gt;output_tensor -->
<g id="edge4" class="edge"><title>graph_pipeline&#45;&gt;output_tensor</title>
<path fill="none" stroke="black" d="M380.631,-18C383.27,-18 385.909,-18 388.548,-18"/>
<polygon fill="black" stroke="black" points="388.726,-21.5001 398.726,-18 388.726,-14.5001 388.726,-21.5001"/>
</g>
<!-- output_tensor&#45;&gt;output_image -->
<g id="edge5" class="edge"><title>output_tensor&#45;&gt;output_image</title>
<path fill="none" stroke="black" stroke-width="5" stroke-dasharray="5,2" d="M460.5,-36.1043C460.5,-46.9167 460.5,-60.8463 460.5,-71.6966"/>
</g>
</g>
</svg>
