<?xml version="1.0" encoding="UTF-8" standalone="no"?>
<!--
Copyright (c) 2025, Arm Limited and Contributors
-->
<!DOCTYPE svg PUBLIC "-//W3C//DTD SVG 1.1//EN"
 "http://www.w3.org/Graphics/SVG/1.1/DTD/svg11.dtd">
<!-- Generated by graphviz version 2.38.0 (20140413.2041)
 -->
<!-- Title: D Pages: 1 -->
<svg width="598pt" height="116pt"
 viewBox="0.00 0.00 597.64 116.00" xmlns="http://www.w3.org/2000/svg" xmlns:xlink="http://www.w3.org/1999/xlink">
<g id="graph0" class="graph" transform="scale(1 1) rotate(0) translate(4 112)">
<title>D</title>
<polygon fill="white" stroke="none" points="-4,4 -4,-112 593.641,-112 593.641,4 -4,4"/>
<!-- input_tensor -->
<g id="node1" class="node"><title>input_tensor</title>
<ellipse fill="none" stroke="black" cx="55.895" cy="-90" rx="55.7903" ry="18"/>
<text text-anchor="middle" x="55.895" y="-86.3" font-family="Times New Roman,serif" font-size="14.00">input_tensor</text>
</g>
<!-- data_graph_pipeline -->
<g id="node3" class="node"><title>data_graph_pipeline</title>
<polygon fill="none" stroke="black" points="258.395,-108 129.395,-108 129.395,-72 258.395,-72 258.395,-108"/>
<text text-anchor="middle" x="193.895" y="-86.3" font-family="Times New Roman,serif" font-size="14.00">data_graph_pipeline</text>
</g>
<!-- input_tensor&#45;&gt;data_graph_pipeline -->
<g id="edge1" class="edge"><title>input_tensor&#45;&gt;data_graph_pipeline</title>
<path fill="none" stroke="black" d="M111.958,-90C114.298,-90 116.639,-90 118.979,-90"/>
<polygon fill="black" stroke="black" points="119.241,-93.5001 129.241,-90 119.241,-86.5001 119.241,-93.5001"/>
</g>
<!-- visualization_pipeline -->
<g id="node6" class="node"><title>visualization_pipeline</title>
<polygon fill="none" stroke="black" points="263.895,-36 129.895,-36 129.895,-0 263.895,-0 263.895,-36"/>
<text text-anchor="middle" x="196.895" y="-14.3" font-family="Times New Roman,serif" font-size="14.00">visualization_pipeline</text>
</g>
<!-- input_tensor&#45;&gt;visualization_pipeline -->
<g id="edge3" class="edge"><title>input_tensor&#45;&gt;visualization_pipeline</title>
<path fill="none" stroke="black" d="M85.1103,-74.496C104.802,-64.7198 131.129,-51.6496 153.287,-40.6492"/>
<polygon fill="black" stroke="black" points="155.096,-43.6588 162.497,-36.0771 151.984,-37.3889 155.096,-43.6588"/>
</g>
<!-- output_tensor -->
<g id="node2" class="node"><title>output_tensor</title>
<ellipse fill="none" stroke="black" cx="337.895" cy="-90" rx="61.99" ry="18"/>
<text text-anchor="middle" x="337.895" y="-86.3" font-family="Times New Roman,serif" font-size="14.00">output_tensor</text>
</g>
<!-- output_tensor&#45;&gt;visualization_pipeline -->
<g id="edge4" class="edge"><title>output_tensor&#45;&gt;visualization_pipeline</title>
<path fill="none" stroke="black" d="M307.993,-74.1548C288.329,-64.3926 262.273,-51.4569 240.337,-40.5668"/>
<polygon fill="black" stroke="black" points="241.732,-37.3518 231.218,-36.04 238.619,-43.6217 241.732,-37.3518"/>
</g>
<!-- data_graph_pipeline&#45;&gt;output_tensor -->
<g id="edge2" class="edge"><title>data_graph_pipeline&#45;&gt;output_tensor</title>
<path fill="none" stroke="black" d="M258.583,-90C261.022,-90 263.462,-90 265.902,-90"/>
<polygon fill="black" stroke="black" points="265.932,-93.5001 275.932,-90 265.932,-86.5001 265.932,-93.5001"/>
</g>
<!-- output_image -->
<g id="node4" class="node"><title>output_image</title>
<ellipse fill="none" stroke="black" cx="341.895" cy="-18" rx="59.5901" ry="18"/>
<text text-anchor="middle" x="341.895" y="-14.3" font-family="Times New Roman,serif" font-size="14.00">output_image</text>
</g>
<!-- blit -->
<g id="node7" class="node"><title>blit</title>
<polygon fill="none" stroke="black" points="473.895,-36 419.895,-36 419.895,-0 473.895,-0 473.895,-36"/>
<text text-anchor="middle" x="446.895" y="-14.3" font-family="Times New Roman,serif" font-size="14.00">blit</text>
</g>
<!-- output_image&#45;&gt;blit -->
<g id="edge6" class="edge"><title>output_image&#45;&gt;blit</title>
<path fill="none" stroke="black" d="M401.778,-18C404.399,-18 407.021,-18 409.643,-18"/>
<polygon fill="black" stroke="black" points="409.754,-21.5001 419.754,-18 409.754,-14.5001 409.754,-21.5001"/>
</g>
<!-- swapchain -->
<g id="node5" class="node"><title>swapchain</title>
<ellipse fill="none" stroke="black" cx="540.895" cy="-18" rx="48.9926" ry="18"/>
<text text-anchor="middle" x="540.895" y="-14.3" font-family="Times New Roman,serif" font-size="14.00">swapchain</text>
</g>
<!-- visualization_pipeline&#45;&gt;output_image -->
<g id="edge5" class="edge"><title>visualization_pipeline&#45;&gt;output_image</title>
<path fill="none" stroke="black" d="M264.014,-18C266.632,-18 269.249,-18 271.867,-18"/>
<polygon fill="black" stroke="black" points="271.963,-21.5001 281.963,-18 271.963,-14.5001 271.963,-21.5001"/>
</g>
<!-- blit&#45;&gt;swapchain -->
<g id="edge7" class="edge"><title>blit&#45;&gt;swapchain</title>
<path fill="none" stroke="black" d="M474.067,-18C476.694,-18 479.32,-18 481.947,-18"/>
<polygon fill="black" stroke="black" points="482.079,-21.5001 492.079,-18 482.079,-14.5001 482.079,-21.5001"/>
</g>
</g>
</svg>
